<svg xmlns="http://www.w3.org/2000/svg" version="1.1" xmlns:xlink="http://www.w3.org/1999/xlink" xmlns:svgjs="http://svgjs.com/svgjs" width="512" height="512" x="0" y="0" viewBox="0 0 512.004 512.004" style="enable-background:new 0 0 512 512" xml:space="preserve" class=""><g><path d="m130.239 138.268-44.358 3.427c-12.343.954-23.336 7.423-30.162 17.748L4.562 236.815c-5.177 7.83-6 17.629-2.203 26.213 3.798 8.584 11.603 14.566 20.878 16.003l40.615 6.29c9.501-50.42 32.245-100.716 66.387-147.053zM226.682 448.151l6.291 40.615c1.437 9.275 7.419 17.08 16.002 20.877a27.434 27.434 0 0 0 11.112 2.36 27.34 27.34 0 0 0 15.102-4.563l77.374-51.156c10.325-6.827 16.794-17.821 17.746-30.162l3.427-44.358c-46.338 34.143-96.633 56.887-147.054 66.387zM211.407 420c1.41 0 2.828-.116 4.243-.352 21.124-3.532 41.484-9.482 60.906-17.27l-166.93-166.93c-7.788 19.421-13.738 39.781-17.27 60.906-1.392 8.327 1.401 16.81 7.37 22.78l93.144 93.144c4.956 4.955 11.645 7.722 18.537 7.722zM471.178 227.003c40.849-78.974 42.362-162.43 40.227-201.57C510.674 12.022 499.982 1.33 486.57.599A412.7 412.7 0 0 0 464.131 0C420.365 0 351.114 6.629 285 40.826c-52.542 27.177-121.439 87.018-162.087 165.66.48.375.949.773 1.391 1.215l180 180c.442.442.839.91 1.214 1.39 78.642-40.649 138.483-109.546 165.66-162.088zM297.698 108.24c29.241-29.241 76.822-29.244 106.065 0 14.166 14.165 21.967 33 21.967 53.033s-7.801 38.868-21.967 53.033c-14.619 14.619-33.829 21.93-53.032 21.932-19.209.001-38.41-7.309-53.033-21.932-14.166-14.165-21.968-33-21.968-53.033s7.802-38.868 21.968-53.033z" fill="#00c2ff" data-original="#000000" class=""></path><path d="M318.911 193.092c17.545 17.545 46.095 17.546 63.64 0 8.499-8.5 13.18-19.8 13.18-31.82s-4.681-23.32-13.18-31.819c-8.772-8.773-20.296-13.159-31.82-13.159-11.523 0-23.047 4.386-31.819 13.159-8.499 8.499-13.181 19.799-13.181 31.819s4.681 23.321 13.18 31.82zM15.305 421.938c3.839 0 7.678-1.464 10.606-4.394l48.973-48.973c5.858-5.858 5.858-15.355 0-21.213-5.857-5.858-15.355-5.858-21.213 0L4.698 396.331c-5.858 5.858-5.858 15.355 0 21.213a14.954 14.954 0 0 0 10.607 4.394zM119.765 392.239c-5.857-5.858-15.355-5.858-21.213 0L4.397 486.394c-5.858 5.858-5.858 15.355 0 21.213C7.326 510.536 11.165 512 15.004 512s7.678-1.464 10.606-4.394l94.154-94.154c5.859-5.858 5.859-15.355.001-21.213zM143.432 437.12 94.46 486.093c-5.858 5.858-5.858 15.355 0 21.213 2.929 2.929 6.768 4.394 10.606 4.394s7.678-1.464 10.606-4.394l48.973-48.973c5.858-5.858 5.858-15.355 0-21.213-5.857-5.858-15.355-5.858-21.213 0z" fill="#00c2ff" data-original="#000000" class=""></path></g></svg>