<?xml version="1.0" ?><svg viewBox="0 0 32 32" xmlns="http://www.w3.org/2000/svg"><title/><g data-name="trim, cut, copy, tool, rotate, reflect, editing" id="trim_cut_copy_tool_rotate_reflect_editing"><path d="M16,2a1,1,0,0,0-1,1V29a1,1,0,0,0,2,0V3A1,1,0,0,0,16,2Z"/><path d="M29,6H20a1,1,0,0,0-1,1V25a1,1,0,0,0,1,1h9a1,1,0,0,0,1-1V7A1,1,0,0,0,29,6ZM28,24H21V8h7Z"/><path d="M12,6H3A1,1,0,0,0,2,7V25a1,1,0,0,0,1,1h9a1,1,0,0,0,1-1V7A1,1,0,0,0,12,6ZM11,24H4V8h7Z"/><path d="M22.79,18.71a1,1,0,0,0,1.42,0l2-2a1,1,0,0,0,0-1.42l-2-2a1,1,0,0,0-1.42,1.42L24.09,16l-1.3,1.29A1,1,0,0,0,22.79,18.71Z"/><path d="M7.79,18.71a1,1,0,0,0,1.42,0,1,1,0,0,0,0-1.42L7.91,16l1.3-1.29a1,1,0,0,0-1.42-1.42l-2,2a1,1,0,0,0,0,1.42Z"/></g></svg>